<svg width="36" height="36" viewBox="0 0 36 36" fill="none" xmlns="http://www.w3.org/2000/svg">
<g clip-path="url(#clip0_309_126)">
<path d="M30.0002 13.0349V5.99991H22.9652L18.0002 1.03491L13.0352 5.99991H6.00016V13.0349L1.03516 17.9999L6.00016 22.9649V29.9999H13.0352L18.0002 34.9649L22.9652 29.9999H30.0002V22.9649L34.9652 17.9999L30.0002 13.0349ZM27.0002 21.7199V26.9999H21.7202L18.0002 30.7199L14.2802 26.9999H9.00016V21.7199L5.28016 17.9999L9.00016 14.2799V8.99991H14.2802L18.0002 5.27991L21.7202 8.99991H27.0002V14.2799L30.7202 17.9999L27.0002 21.7199ZM18.0002 8.99991V26.9999C22.9652 26.9999 27.0002 22.9649 27.0002 17.9999C27.0002 13.0349 22.9652 8.99991 18.0002 8.99991Z" fill="#C41277"/>
</g>
<defs>
<clipPath id="clip0_309_126">
<rect width="36" height="36" fill="white"/>
</clipPath>
</defs>
</svg>
